<svg xmlns="http://www.w3.org/2000/svg" id="svg_paka" xmlns:xlink="http://www.w3.org/1999/xlink" viewBox="0 0 558.75 933.75">
<defs>
  <style>
	#left-panel {
	 filter: brightness(120%);
	}
  </style>
   <!-- ClipPath - Brokat do left- i front- panel -->
  <clipPath id="glitter-mask">
    <use href="#left-panel"/>
    <use href="#front-panel"/>
  </clipPath>
</defs>
<!-- Content -->
  <g id="hussaria-electra">
  <image transform="scale(.75)" xlink:href="img/paka.png" width="745px" height="1245px" />
    <g id="left-panel" style="mix-blend-mode: color; opacity: .75;">
      <path id="topic" d="M62.28,71.81l102.48-43.45c.51-.22.85-.72.85-1.27l.06-23.87c0-.52-.55-.86-1.02-.62L61.22,53.86c-.34.17-.54.51-.53.89l.54,16.36c0,.54.56.91,1.06.7Z"/>
      <path id="panel" d="M64.63,176.57l101.78-8.33c1.08-.09,1.91-1,1.9-2.09l-1.55-133.34c0-.81-.83-1.35-1.57-1.05l-102.05,41.59c-.92.37-1.51,1.27-1.51,2.26l.84,98.98c0,1.16,1,2.07,2.16,1.98Z"/>
      <path id="pasek" d="M168.31,191.61l-.03-18.31c0-1.12-.95-2.01-2.07-1.93l-102.41,7.04c-.25.02-.45.23-.45.48l.36,15.9c0,1.22.54,1.82,1.76,1.79l100.67-2.72c1.22-.03,2.2-1.03,2.19-2.25Z"/>
      <path id="bok" d="M168.33,197.62c-.01-.95-.79-1.7-1.74-1.68l-101.53,2.23c-.95.01-1.71.8-1.69,1.75l9.44,431.87c.02.85.31,1.67.83,2.34l33.24,42.99c.9,1.16,1.39,2.58,1.42,4.04l1.09,61.21c.02,1.32.43,2.6,1.16,3.7l63.02,93.54c.61.9,2.02.46,2.01-.63l-7.24-641.35ZM71,330.23c-1.55-.64-1.06-3.55-1.06-3.55l-.13-34.25c0-1.33,1.25-2.31,2.54-1.99l25.91,6.6c1.09.27,1.42,2.03,1.42,2.03l.19,40.61s-.23,1.45-1.64.87c-1.42-.58-27.23-10.32-27.23-10.32ZM102.66,603.7l-26.28-28.05c-.77-.82-1.2-1.91-1.2-3.03l.06-34.17c0-1.12,1.34-1.69,2.15-.92l26.06,24.83c.56.54.89,1.28.9,2.06l.41,38.71c.02,1.35-1.19,1.56-2.11.57ZM120.81,345.32l-.19-39.97c0-1.61.9-2.45,2.55-2.06l34.65,8.71c.6.14,1.05.46,1.38.77.41.4.62.96.62,1.53v48.41s-.64,1.83-2.45,1.12c-1.81-.7-36.03-14.06-36.03-14.06-.84-.34-.52-4.45-.52-4.45ZM159.69,668.62l-32.37-37.18c-1.3-1.46-1.97-2.85-2-4.8l-.55-38.02c-.02-1.66,1.99-2.52,3.17-1.35l32.59,32.33c.86.85,1.35,2.01,1.36,3.22l1.11,44.5c.04,1.76-2.14,2.62-3.3,1.29Z"/>
    </g>
    <g id="front-panel" style="mix-blend-mode: exclusion; opacity: .75;">
      <g id="ster-left">
        <path id="back" d="M255.23,145.16s-1.11,4.37-5.32,5.32c-4.21.95-8.74-4.68-9.32-4.68s-46.77-1.68-46.77-1.68c0,0-2.32,2.81-4.84,1.16-2.52-1.65-2.9-3.94-2.9-3.94l.07,28.61,69.8,2.52v-27.39l-.71.06Z" style="opacity: .5;"/>
        <path id="right" d="M266.77,104.13c-.81.76-3.76,3.45-2.4,3.93,2.1,1,.93,2.75-2.06,3.64l-1.7-.12h0c-10.61-.91-74.68-3.61-74.56-3.32l.03,11.63s.6-1.31,2.78-2.08,5.42.24,6.16.71c.74.12,44.64,2.4,47.45,2.48,2.81-.34,3.1-2.9,7.4-2.32s5.47,8.19,6.05,8.55c.4.25.64.3.75.32h0s.01,0,.01,0c.04,0,.07,0,.07,0,0,0,0,0,0,0h0s0,0,0,0h.59s0,0,0,0h0l21.18.06s2.84.66,2.82,8.84c-.02,8.19-2.99,8.9-2.99,8.9l-22.45-.26v27.48l28.74.97.13-76.61s-10.87.47-18.04,7.19Z" style="opacity: .75;"/>
        <g id="top" style="mix-blend-mode: overlay;">
          <path d="M186.06,102.81v-10.55c-.13-1.6,1.48-2.86,2.91-2.71l95.83,7.21c-8.92.75-16.56,4.43-21.41,10.79-18.13-.92-60.89-3.9-77.32-4.74Z" style="mix-blend-mode: overlay;"/>
        </g>
      </g>
      <g id="ster-right">
        <path id="back-2" data-name="back" d="M437.16,169.63v9.47l3.95.13,36.73,1.16c-.21-.05-.33-14.54,1.25-21.94l-24.58-.39c-.63,1.06.03,1.81-1.48,1.68l-.11,8.19c1.58.18,2.45,1.09,2.31,1.29,0,0,.31,9.52-.52,9.74s-16.02-.58-16.02-.58l-.15-8.71"/>
        <path id="right-2" data-name="right" d="M519.11,181.77l-41.27-1.39c-.25-9.08.09-15.51,1.25-21.94l28.02.04c-.08.04.13.65.87,1.1,8.16,3.07,8.09-28.23.44-23.2-.84.55-1.18.75-1.18.75l-23.49-1.32c-2.19.09,9.77-22.71,36.15-19.36l-.78,65.32Z" style="opacity: .75;"/>
        <path id="top-2" data-name="top" d="M437.26,132s1.02-2.66,9.66-2.24,9.88,5.1,9.88,5.1l26.62.9c4.76-13,20.32-20.87,36.47-19.3l.05-3.62-82.49-5.68-2.48-.19-.03,1.79,2.35-.02-.03,23.27Z" style="mix-blend-mode: overlay;"/>
      </g>
      <path id="topic-2" data-name="topic" d="M166.33,28l365.03,34.2c.39.04.78-.12,1.04-.43l.75-.9c.09-.1.13-.23.13-.37l-.1-19.48c0-.34-.26-.62-.6-.66L167.57,1.48c-.93-.1-1.67.1-1.68,1.04l-.07,24.77c0,.75.51.72.51.72Z"/>
      <path id="panel-2" data-name="panel" d="M185.18,87.46l333.11,24.04c.89.06,1.66-.63,1.67-1.53l.8-42.51c.02-1.24-.91-2.29-2.15-2.4l-333.64-30.7c-.97-.09-1.81.68-1.8,1.66l.28,49.59c0,.97.76,1.78,1.73,1.85Z"/>
      <path id="panel-vertical" d="M168.91,30.46l11.18,1.06c.53.05.94.49.95,1.03l.96,134.87c.06,1.49-.33,2.37-1.29,2.45l-10.27-.19c-.72,0-1.3-1.59-1.31-2.31l-1.65-135.59c0-.77.66-1.39,1.43-1.31Z"/>
      <path id="panel-vertical-right" d="M524.82,65.47l6.52.16c1.07.03,1.92.92,1.89,2l-3.62,111.7c-.03,1.02-.87,1.84-1.9,1.84h-5.31c-1.25,0-2.26-1.02-2.24-2.28.22-14.75,1.46-96.66,2.3-111.25.07-1.24,1.11-2.2,2.35-2.17Z"/>
      <path id="pasek-2" data-name="pasek" d="M171.02,193.47l352.95,9.11c.1,0,.21,0,.31-.02l2.88-.4c.93-.13,1.62-.92,1.64-1.85l.2-15.36c.01-1.03-.8-1.89-1.83-1.92l-356.67-12.02c-.66-.02-1.21.51-1.22,1.17l-.11,19.38c0,1.03.82,1.88,1.85,1.91Z"/>
      <path id="ramka-left" d="M507.97,706.71l-6.33.4c-.02.96-.63,23.1-.86,35.27l-312.59,79.29-4.45-626.06h-14.52s6.83,645.05,6.83,645.05l334.83-85.74,1.35-50.15-2.6.65-1.66,1.29Z"/>
      <polygon id="ramka-right" points="526.65 204.81 526.55 204.06 517 203.65 516 257.09 526.34 256.52 528.03 204.87 526.65 204.81"/>
      <path id="ramka-right-top" d="M503.47,673.34l9.97-1.93,11.62-381.47-10.3.34c-.03,1.13-11.16,381.42-11.29,383.05Z"/>
      <path id="door" d="M499.13,740.77l.91-33.46-9,1.5c-1.59.12-2.49-.58-2.52-2.29v-28.26c.05-1.68.84-2.58,2.36-2.66l10.46-1.98,10.9-383.25-10,.3c-1.54.02-2.27-.82-2.33-2.36l.31-27.81c-.08-2.04.98-2.92,2.91-2.95l10.99-.51.95-52.54-328.02-7.23,3.84,620.21,308.21-76.73ZM348.02,281.5c.74-.06,1.12.91,1.98,1.6,1.89,1.5,4.89.67,5.76.44,4.54-1.25,6.56-5.41,9.21-5.08,1.97.24,1.87,2.77,3.37,2.13.52-.22.72-.67,1.31-.68.97,0,1.18,1.2,1.94,1.26,1.06.08,1.59-2.23,4.21-4.89.89-.91,1.41-1.23,1.89-1.11.66.16,1.19,1.17,1.06,2.03-.15,1.03-1.5,4.46-.58,4.84,1.92.8,2.98,5.74,1.06,8.81-.9,1.44-1.66,1.88-1.48,3.1.14.93.41,1.12.81,2.23.25.71.12,1.3-.97,4.55-.88,2.61-.7,1.94-.68,2.32.11,1.76,1.28,2.92,2.37,4.98,1.04,1.97,1.1,4.14.87,5.56-.48,2.92-2.04,3.16-3.24,6.74-.43,1.29-.77,2.59-1.06,5.69-.3,3.21-.1,3.7-.58,5.23-.28.88-.84,3.27-2.68,5.02-.62.59-2.41,1.63-4.82,2.1-4.26.81-9.53-1.65-11.05-5.26-1.48-3.54.74-6.29-.71-11.23-.99-3.36-1.9-2.39-2.65-5.42-1.27-5.18,2.17-8.72.45-12.45-1.21-2.61-2.52-1.03-3.37-3.77-.94-3.04,1.11-6.38,1.74-7.31,1.79-2.64,2.77-2.58,2.47-3.24-.25-.55-.43-.85-2.66-1.31-2.82-.57-5.61-2.88-5.47-4.89.07-.94.78-1.93,1.5-1.98ZM211.68,332.32c4.68-.16,27.22-.16,27.22-.16,5.95.78,8.33,4.57,8.99,11.09l-.08,65.74c.36,3.9-3.31,7.1-7.16,7.26l-26.81,1.08c-4.73.43-9.13-2.53-9.67-7.37,0,0-.68-67.26-.68-70.16s3.52-7.33,8.2-7.49Z"/>
    </g>
  </g>
  <!-- Warstwa brokatu -->
  <g id="glitter-layer" clip-path="url(#glitter-mask)"></g>
  <!-- Personalizacja -->
														<rect id="preview_grawerTopPanel" x="22.8" y="6.8" width="18" height="3.5" fill="#CCCCCC" transform="rotate(0.25) scale(1)" style="visibility: hidden;" />
	<text id="previewText_grawerTopPanel" x="24" y="17.25" font-size="12" fill="#333333" text-anchor="start" transform="rotate(0.5 10 10) scale(1, 0.5)"></text>
	<text id="previewText_toppanel" x="200" y="52" font-size="25" fill="#FFFFFF" text-anchor="start" transform="rotate(4.85) scale(1)"></text>
	<text id="previewText_door" x="180" y="40" font-size="25" fill="#FFFFFF" text-anchor="middle" transform="translate(162.09 208.97) rotate(.13) scale(1.09 1) skewX(-2.39)"></text>
	<text id="previewText_side" x="185" y="30" font-size="25" fill="#FFFFFF" text-anchor="middle" transform="translate(11.49 111.24) rotate(-11.07) scale(.56 .98) skewX(-19.32)"></text>
	<rect id="preview_flagTopPanel_left" x="190" y="45" width="35" height="30" fill="#dbdbdb" stroke="#FFFFFF" stroke-width="0.15" transform="skewX(7) scale(1, 0.8) rotate(5)" style="visibility: hidden;" />
	<rect id="preview_flagTopPanel_center" x="345" y="52" width="33" height="28" fill="#dbdbdb" stroke="#FFFFFF" stroke-width="0.15" transform="skewX(7) scale(1, 0.8) rotate(5)" style="visibility: hidden;" />
	<rect id="preview_flagTopPanel_right" x="480" y="55" width="32" height="27" fill="#dbdbdb" stroke="#FFFFFF" stroke-width="0.15" transform="skewX(7) scale(1, 0.8) rotate(5)" style="visibility: hidden;" />
	<rect id="preview_flagTopPanel_grawer" x="36.65" y="7.6" width="30" height="20" fill="#dbdbdb" stroke="#FFFFFF" stroke-width="0.15" transform="rotate(0) scale(1)" style="visibility: hidden;" />
</svg>